<svg width="83" height="83" viewBox="0 0 83 83" fill="none" xmlns="http://www.w3.org/2000/svg">
<circle cx="34" cy="35" r="29" stroke="#333439" stroke-width="2"/>
<circle cx="34.0003" cy="22.9993" r="8.27273" stroke="#333439" stroke-width="2"/>
<mask id="path-3-inside-1_1643_55532" fill="white">
<path fill-rule="evenodd" clip-rule="evenodd" d="M18.2568 49.3046C19.0165 41.58 25.5313 35.5449 33.4556 35.5449C41.7363 35.5449 48.4778 42.1351 48.7215 50.3568C44.9 54.0206 39.7136 56.272 34.0015 56.272C27.761 56.272 22.1481 53.5849 18.2568 49.3046Z"/>
</mask>
<path d="M18.2568 49.3046L16.2664 49.1089L16.1795 49.9928L16.777 50.65L18.2568 49.3046ZM48.7215 50.3568L50.1056 51.8004L50.7469 51.1856L50.7206 50.2975L48.7215 50.3568ZM20.2472 49.5004C20.9072 42.7894 26.5702 37.5449 33.4556 37.5449V33.5449C24.4924 33.5449 17.1258 40.3706 16.2664 49.1089L20.2472 49.5004ZM33.4556 37.5449C40.6516 37.5449 46.5106 43.2721 46.7223 50.416L50.7206 50.2975C50.445 40.998 42.821 33.5449 33.4556 33.5449V37.5449ZM47.3373 48.9131C43.8732 52.2343 39.1774 54.272 34.0015 54.272V58.272C40.2498 58.272 45.9267 55.8069 50.1056 51.8004L47.3373 48.9131ZM34.0015 54.272C28.3478 54.272 23.2649 51.8402 19.7367 47.9592L16.777 50.65C21.0314 55.3296 27.1742 58.272 34.0015 58.272V54.272Z" fill="#333439" mask="url(#path-3-inside-1_1643_55532)"/>
<path d="M57.6268 60.681L58.4308 61.2756C58.7252 60.8776 58.684 60.324 58.3339 59.9739L57.6268 60.681ZM57.9594 65.1085L57.2523 65.8156L57.9594 65.1085ZM71.851 79L71.1439 79.7071C71.5344 80.0976 72.1676 80.0976 72.5581 79.7071L71.851 79ZM78 72.8511L78.7071 73.5582C78.8946 73.3707 79 73.1163 79 72.8511C79 72.5859 78.8946 72.3315 78.7071 72.144L78 72.8511ZM64.1084 58.9596L63.4013 59.6667V59.6667L64.1084 58.9596ZM59.6811 58.6268L58.974 59.3339C59.324 59.684 59.8776 59.7252 60.2756 59.4308L59.6811 58.6268ZM58.3339 59.9739L53.7071 55.3471L52.2929 56.7613L56.9197 61.3881L58.3339 59.9739ZM58.6665 64.4014C57.8147 63.5496 57.7354 62.2157 58.4308 61.2756L56.8228 60.0863C55.5474 61.8107 55.6899 64.2532 57.2523 65.8156L58.6665 64.4014ZM72.5581 78.2929L58.6665 64.4014L57.2523 65.8156L71.1439 79.7071L72.5581 78.2929ZM77.2929 72.144L71.1439 78.2929L72.5581 79.7071L78.7071 73.5582L77.2929 72.144ZM63.4013 59.6667L77.2929 73.5582L78.7071 72.144L64.8155 58.2524L63.4013 59.6667ZM60.2756 59.4308C61.2157 58.7356 62.5495 58.8149 63.4013 59.6667L64.8155 58.2524C63.2532 56.6902 60.8108 56.5476 59.0865 57.8227L60.2756 59.4308ZM54.3471 54.7071L58.974 59.3339L60.3882 57.9197L55.7613 53.2929L54.3471 54.7071Z" fill="#333439"/>
</svg>
