<svg xmlns="http://www.w3.org/2000/svg" width="30" height="30" viewBox="0 0 30 30" fill="none">
<rect opacity="0.2" width="30" height="30" rx="4" fill="white"/>
<path d="M15.9907 24H13.1887C12.7207 24 12.3399 23.6083 12.3399 23.1269V16.6252H10.7052C10.2372 16.6252 9.85645 16.2334 9.85645 15.752V12.966C9.85645 12.4845 10.2372 12.0929 10.7052 12.0929H12.3399V10.6978C12.3399 9.31444 12.7622 8.13753 13.5609 7.29446C14.3631 6.44756 15.4844 6 16.8033 6L18.9402 6.00357C19.4074 6.00439 19.7875 6.39606 19.7875 6.87671V9.46344C19.7875 9.94492 19.4069 10.3366 18.939 10.3366L17.5002 10.3371C17.0614 10.3371 16.9497 10.4276 16.9258 10.4554C16.8864 10.5014 16.8396 10.6314 16.8396 10.9905V12.0927H18.8309C18.9808 12.0927 19.126 12.1308 19.2508 12.2025C19.5201 12.3572 19.6875 12.6499 19.6875 12.9662L19.6864 15.7522C19.6864 16.2334 19.3057 16.625 18.8377 16.625H16.8396V23.1269C16.8396 23.6083 16.4587 24 15.9907 24Z" fill="#ACACAC"/>
</svg>