<svg xmlns="http://www.w3.org/2000/svg" width="31" height="30" viewBox="0 0 31 30" fill="none">
<rect width="31" height="30" rx="5" fill="white" opacity="0.2"/>
<g clip-path="url(#clip0)">
<path d="M15.5 6.8025C18.3035 6.8025 18.636 6.8125 19.7438 6.86083C22.5893 6.98417 23.9184 8.27 24.0479 10.96C24.0986 12.0142 24.1082 12.3308 24.1082 15.0008C24.1082 17.6717 24.0977 17.9875 24.0479 19.0417C23.9175 21.7292 22.5919 23.0175 19.7438 23.1408C18.636 23.1892 18.3053 23.1992 15.5 23.1992C12.6965 23.1992 12.364 23.1892 11.2571 23.1408C8.40463 23.0167 7.0825 21.725 6.953 19.0408C6.90225 17.9867 6.89175 17.6708 6.89175 15C6.89175 12.33 6.90313 12.0142 6.953 10.9592C7.08338 8.27 8.409 6.98333 11.2571 6.86C12.3649 6.8125 12.6965 6.8025 15.5 6.8025V6.8025ZM15.5 5C12.6484 5 12.2914 5.01167 11.1714 5.06C7.35813 5.22667 5.23888 7.24167 5.06387 10.8767C5.01225 11.9442 5 12.2842 5 15C5 17.7158 5.01225 18.0567 5.063 19.1233C5.238 22.755 7.35375 24.7733 11.1705 24.94C12.2914 24.9883 12.6484 25 15.5 25C18.3516 25 18.7095 24.9883 19.8295 24.94C23.6393 24.7733 25.7638 22.7583 25.9361 19.1233C25.9878 18.0567 26 17.7158 26 15C26 12.2842 25.9877 11.9442 25.937 10.8775C25.7655 7.24917 23.6471 5.2275 19.8304 5.06083C18.7095 5.01167 18.3516 5 15.5 5V5ZM15.5 9.865C12.5224 9.865 10.1082 12.1642 10.1082 15C10.1082 17.8358 12.5224 20.1358 15.5 20.1358C18.4776 20.1358 20.8918 17.8367 20.8918 15C20.8918 12.1642 18.4776 9.865 15.5 9.865ZM15.5 18.3333C13.5671 18.3333 12 16.8417 12 15C12 13.1592 13.5671 11.6667 15.5 11.6667C17.4329 11.6667 19 13.1592 19 15C19 16.8417 17.4329 18.3333 15.5 18.3333ZM21.1053 8.4625C20.4088 8.4625 19.8444 9 19.8444 9.6625C19.8444 10.325 20.4088 10.8625 21.1053 10.8625C21.8009 10.8625 22.3644 10.325 22.3644 9.6625C22.3644 9 21.8009 8.4625 21.1053 8.4625Z" fill="#ACACAC"/>
</g>
<defs>
<clipPath id="clip0">
<rect width="21" height="20" fill="white" transform="translate(5 5)"/>
</clipPath>
</defs>
</svg>