<svg width="83" height="83" viewBox="0 0 83 83" fill="none" xmlns="http://www.w3.org/2000/svg">
<rect x="12" y="7" width="58" height="71" rx="3" stroke="#333439" stroke-width="2"/>
<rect x="29.5" y="19" width="24" height="2" rx="1" fill="#333439"/>
<rect x="27" y="27" width="29" height="2" rx="1" fill="#333439"/>
<rect x="29.5" y="35" width="24" height="2" rx="1" fill="#333439"/>
<circle cx="53.5" cy="53.5" r="9.5" stroke="#333439" stroke-width="2"/>
<path d="M59 72L58.5039 72.8682C58.8134 73.0451 59.1936 73.0438 59.5019 72.8649C59.8102 72.686 60 72.3565 60 72H59ZM48 72H47C47 72.3565 47.1898 72.686 47.4981 72.8649C47.8064 73.0438 48.1866 73.0451 48.4961 72.8682L48 72ZM53.5 68.8571L53.9961 67.9889C53.6887 67.8132 53.3113 67.8132 53.0039 67.9889L53.5 68.8571ZM58 61V72H60V61H58ZM49 72V61H47V72H49ZM59.4961 71.1318L53.9961 67.9889L53.0039 69.7254L58.5039 72.8682L59.4961 71.1318ZM53.0039 67.9889L47.5039 71.1318L48.4961 72.8682L53.9961 69.7254L53.0039 67.9889Z" fill="#333439"/>
</svg>
