<svg width="18" height="18" viewBox="0 0 18 18" fill="none" xmlns="http://www.w3.org/2000/svg">
<mask id="path-1-outside-1_1820_47404" maskUnits="userSpaceOnUse" x="4" y="1" width="10" height="13" fill="black">
<rect fill="white" x="4" y="1" width="10" height="13"/>
<path fill-rule="evenodd" clip-rule="evenodd" d="M9 13C9 13 13 9.15 13 5.66667C13 3.64162 11.2091 2 9 2C6.79086 2 5 3.64162 5 5.66667C5 9.15 9 13 9 13Z"/>
</mask>
<path d="M9 13L8.30653 13.7205C8.69374 14.0932 9.30626 14.0932 9.69347 13.7205L9 13ZM9 13C9.69347 13.7205 9.69364 13.7203 9.69383 13.7201C9.69392 13.7201 9.69412 13.7199 9.69429 13.7197C9.69462 13.7194 9.69502 13.719 9.69548 13.7186C9.69639 13.7177 9.69755 13.7166 9.69894 13.7152C9.70173 13.7125 9.70547 13.7089 9.71014 13.7043C9.71948 13.6952 9.73252 13.6824 9.74901 13.666C9.782 13.6333 9.82884 13.5864 9.88756 13.5262C10.0049 13.4059 10.1701 13.2325 10.3673 13.0141C10.7605 12.5786 11.2859 11.9587 11.8133 11.2214C12.8357 9.79219 14 7.73942 14 5.66667H12C12 7.07725 11.1643 8.69114 10.1867 10.0578C9.71409 10.7184 9.23952 11.2787 8.88275 11.6739C8.70487 11.8709 8.55758 12.0255 8.45619 12.1293C8.40554 12.1812 8.36644 12.2204 8.34083 12.2458C8.32803 12.2585 8.31861 12.2677 8.31281 12.2734C8.30991 12.2762 8.30792 12.2782 8.30686 12.2792C8.30633 12.2797 8.30604 12.28 8.30598 12.28C8.30595 12.2801 8.30598 12.28 8.30608 12.28C8.30612 12.2799 8.30624 12.2798 8.30626 12.2798C8.30639 12.2797 8.30653 12.2795 9 13ZM14 5.66667C14 3.00921 11.6777 1 9 1V3C10.7405 3 12 4.27403 12 5.66667H14ZM9 1C6.32226 1 4 3.00921 4 5.66667H6C6 4.27403 7.25946 3 9 3V1ZM4 5.66667C4 7.73942 5.1643 9.79219 6.18668 11.2214C6.71409 11.9587 7.23952 12.5786 7.63275 13.0141C7.82987 13.2325 7.99508 13.4059 8.11244 13.5262C8.17116 13.5864 8.218 13.6333 8.25099 13.666C8.26748 13.6824 8.28052 13.6952 8.28986 13.7043C8.29453 13.7089 8.29827 13.7125 8.30106 13.7152C8.30246 13.7166 8.30361 13.7177 8.30452 13.7186C8.30498 13.719 8.30538 13.7194 8.30571 13.7197C8.30588 13.7199 8.30608 13.7201 8.30617 13.7201C8.30636 13.7203 8.30653 13.7205 9 13C9.69347 12.2795 9.69361 12.2797 9.69374 12.2798C9.69376 12.2798 9.69388 12.2799 9.69392 12.28C9.69402 12.28 9.69405 12.2801 9.69402 12.28C9.69396 12.28 9.69367 12.2797 9.69314 12.2792C9.69208 12.2782 9.69009 12.2762 9.68719 12.2734C9.68139 12.2677 9.67197 12.2585 9.65917 12.2458C9.63356 12.2204 9.59446 12.1812 9.54381 12.1293C9.44242 12.0255 9.29513 11.8709 9.11725 11.6739C8.76048 11.2787 8.28591 10.7184 7.81332 10.0578C6.8357 8.69114 6 7.07725 6 5.66667H4Z" fill="#747476" mask="url(#path-1-outside-1_1820_47404)"/>
<path fill-rule="evenodd" clip-rule="evenodd" d="M9 8C10.1046 8 11 7.10457 11 6C11 4.89543 10.1046 4 9 4C7.89543 4 7 4.89543 7 6C7 7.10457 7.89543 8 9 8Z" stroke="#747476"/>
<path fill-rule="evenodd" clip-rule="evenodd" d="M7.34168 11.946C6.20897 12.0764 5.21956 12.3345 4.46028 12.6675C3.90228 12.9122 3.51337 13.1778 3.27786 13.422C3.04705 13.6613 3.00781 13.8291 3.00781 13.9231C3.00781 14.0171 3.04705 14.1849 3.27786 14.4243C3.51337 14.6685 3.90228 14.934 4.46028 15.1788C5.57338 15.6669 7.18108 15.994 9.00977 15.994C10.8384 15.994 12.4461 15.6669 13.5592 15.1788C14.1172 14.934 14.5062 14.6685 14.7417 14.4243C14.9725 14.1849 15.0117 14.0171 15.0117 13.9231C15.0117 13.8291 14.9725 13.6613 14.7417 13.422C14.5062 13.1778 14.1172 12.9122 13.5592 12.6675C12.8001 12.3345 11.811 12.0765 10.6786 11.9461C10.8474 11.6514 11.022 11.3369 11.1986 11.0052C13.9937 11.4083 16.0117 12.5623 16.0117 13.9231C16.0117 15.6191 12.8768 16.994 9.00977 16.994C5.14269 16.994 2.00781 15.6191 2.00781 13.9231C2.00781 12.5622 4.02622 11.4081 6.82173 11.0051C6.99836 11.3368 7.17287 11.6513 7.34168 11.946Z" fill="#747476"/>
</svg>
