<svg width="83" height="83" viewBox="0 0 83 83" fill="none" xmlns="http://www.w3.org/2000/svg">
<circle cx="27.4824" cy="40.5" r="7.5" stroke="#333439" stroke-width="2"/>
<mask id="path-2-inside-1_1643_55548" fill="white">
<path fill-rule="evenodd" clip-rule="evenodd" d="M40.4027 70H13.5622C13.185 68.7326 12.9824 67.3899 12.9824 66C12.9824 58.268 19.2504 52 26.9824 52C34.7144 52 40.9824 58.268 40.9824 66C40.9824 67.3899 40.7799 68.7326 40.4027 70Z"/>
</mask>
<path d="M40.4027 70V72H41.8941L42.3196 70.5705L40.4027 70ZM13.5622 70L11.6453 70.5705L12.0707 72H13.5622V70ZM40.4027 68H13.5622V72H40.4027V68ZM15.4791 69.4295C15.1564 68.3453 14.9824 67.1947 14.9824 66H10.9824C10.9824 67.5852 11.2136 69.1199 11.6453 70.5705L15.4791 69.4295ZM14.9824 66C14.9824 59.3726 20.355 54 26.9824 54V50C18.1459 50 10.9824 57.1634 10.9824 66H14.9824ZM26.9824 54C33.6098 54 38.9824 59.3726 38.9824 66H42.9824C42.9824 57.1634 35.819 50 26.9824 50V54ZM38.9824 66C38.9824 67.1947 38.8084 68.3453 38.4858 69.4295L42.3196 70.5705C42.7513 69.1199 42.9824 67.5852 42.9824 66H38.9824Z" fill="#333439" mask="url(#path-2-inside-1_1643_55548)"/>
<rect x="5" y="23" width="73" height="55" rx="3" stroke="#333439" stroke-width="2"/>
<mask id="path-5-inside-2_1643_55548" fill="white">
<path d="M26 12C26 9.79086 27.7909 8 30 8H53C55.2091 8 57 9.79086 57 12V24H26V12Z"/>
</mask>
<path d="M57 24V26H59V24H57ZM26 24H24V26H26V24ZM30 10H53V6H30V10ZM55 12V24H59V12H55ZM57 22H26V26H57V22ZM28 24V12H24V24H28ZM53 10C54.1046 10 55 10.8954 55 12H59C59 8.68629 56.3137 6 53 6V10ZM30 6C26.6863 6 24 8.68629 24 12H28C28 10.8954 28.8954 10 30 10V6Z" fill="#333439" mask="url(#path-5-inside-2_1643_55548)"/>
<rect x="47" y="42" width="24" height="2" rx="1" fill="#333439"/>
<rect x="42" y="50" width="29" height="2" rx="1" fill="#333439"/>
<rect x="47" y="58" width="24" height="2" rx="1" fill="#333439"/>
</svg>
