<svg xmlns="http://www.w3.org/2000/svg" width="30" height="30" viewBox="0 0 30 30" fill="none">
<rect opacity="0.2" width="30" height="30" rx="4" fill="white"/>
<path d="M21.8517 15.8811C21.5234 15.4611 21.6173 15.2743 21.8517 14.8989C21.856 14.8946 24.5663 11.1009 24.8455 9.81429L24.8472 9.81343C24.986 9.34457 24.8472 9 24.1762 9H21.9558C21.3906 9 21.1299 9.29571 20.9903 9.62657C20.9903 9.62657 19.8598 12.3677 18.2605 14.1446C17.7444 14.658 17.5057 14.8226 17.224 14.8226C17.0852 14.8226 16.8694 14.658 16.8694 14.1891V9.81343C16.8694 9.25114 16.7112 9 16.2432 9H12.7519C12.3973 9 12.1866 9.26229 12.1866 9.50657C12.1866 10.0397 12.9863 10.1623 13.0692 11.6623V14.9169C13.0692 15.63 12.9414 15.7611 12.658 15.7611C11.9032 15.7611 10.0712 13.0089 8.98552 9.85886C8.76636 9.24771 8.55228 9.00086 7.9828 9.00086H5.76156C5.12777 9.00086 5 9.29657 5 9.62743C5 10.212 5.7548 13.1186 8.50997 16.9586C10.3462 19.5797 12.9321 21 15.2845 21C16.6985 21 16.8711 20.6846 16.8711 20.142C16.8711 17.6374 16.7433 17.4009 17.4516 17.4009C17.7799 17.4009 18.3452 17.5654 19.6652 18.8297C21.1739 20.3289 21.4219 21 22.2664 21H24.4867C25.1197 21 25.4404 20.6846 25.2559 20.0623C24.8337 18.7534 21.9804 16.0611 21.8517 15.8811Z" fill="#ACACAC"/>
</svg>