<svg width="18" height="18" viewBox="0 0 18 18" fill="none" xmlns="http://www.w3.org/2000/svg">
<path d="M2.99121 5.51721C2.16278 5.51721 1.49121 6.18878 1.49121 7.01721V15.0124C1.49121 15.8408 2.16278 16.5124 2.99121 16.5124H14.9863C15.8148 16.5124 16.4863 15.8408 16.4863 15.0124V7.01721C16.4863 6.18879 15.8148 5.51721 14.9864 5.51721H2.99121Z" stroke="#747476" stroke-linecap="round" stroke-linejoin="round"/>
<rect x="5.125" y="2.26147" width="7.75" height="3.25" stroke="#747476" stroke-linecap="round" stroke-linejoin="round"/>
<path fill-rule="evenodd" clip-rule="evenodd" d="M16.382 9.23397C16.6482 9.16058 16.8045 8.88527 16.7311 8.61906C16.6577 8.35285 16.3824 8.19655 16.1162 8.26994L11.1801 9.63085C11.2255 9.74509 11.2505 9.86968 11.2505 10.0001V10.6488L16.382 9.23397ZM6.75047 10.6321L1.57963 9.23464C1.31306 9.16259 1.15536 8.88808 1.2274 8.62151C1.29945 8.35493 1.57396 8.19723 1.84054 8.26927L6.82656 9.61682C6.77754 9.73486 6.75047 9.86432 6.75047 10.0001V10.6321Z" fill="#747476"/>
<rect x="7.25" y="8.50574" width="3.5" height="3.5" rx="0.5" stroke="#747476"/>
</svg>
