<svg xmlns="http://www.w3.org/2000/svg" width="30" height="30" viewBox="0 0 30 30" fill="none">
<rect opacity="0.2" width="30" height="30" rx="4" fill="white"/>
<path d="M24.15 9.325C23.6075 8.36 23.0188 8.1825 21.82 8.115C20.6225 8.03375 17.6112 8 15.0025 8C12.3887 8 9.37625 8.03375 8.18 8.11375C6.98375 8.1825 6.39375 8.35875 5.84625 9.325C5.2875 10.2887 5 11.9487 5 14.8712C5 14.8737 5 14.875 5 14.875C5 14.8775 5 14.8787 5 14.8787V14.8812C5 17.7912 5.2875 19.4637 5.84625 20.4175C6.39375 21.3825 6.9825 21.5575 8.17875 21.6387C9.37625 21.7087 12.3887 21.75 15.0025 21.75C17.6112 21.75 20.6225 21.7087 21.8212 21.64C23.02 21.5587 23.6087 21.3837 24.1513 20.4187C24.715 19.465 25 17.7925 25 14.8825C25 14.8825 25 14.8787 25 14.8762C25 14.8762 25 14.8737 25 14.8725C25 11.9487 24.715 10.2887 24.15 9.325ZM12.5 18.625V11.125L18.75 14.875L12.5 18.625Z" fill="#ACACAC"/>
</svg>